
        <svg xmlns="http://www.w3.org/2000/svg" xmlns:xlink="http://www.w3.org/1999/xlink" version="1.1" width="3162.3672051333565" 
        height="832.397811469695" viewBox="0 0 3162.3672051333565 832.397811469695">
			
			<g transform="scale(8.11836025666781) translate(10, 10)">
				<defs id="SvgjsDefs7939"><linearGradient id="SvgjsLinearGradient7946"><stop id="SvgjsStop7947" stop-color="#8f5e25" offset="0"></stop><stop id="SvgjsStop7948" stop-color="#fbf4a1" offset="0.5"></stop><stop id="SvgjsStop7949" stop-color="#8f5e25" offset="1"></stop></linearGradient><linearGradient id="SvgjsLinearGradient7950"><stop id="SvgjsStop7951" stop-color="#8f5e25" offset="0"></stop><stop id="SvgjsStop7952" stop-color="#fbf4a1" offset="0.5"></stop><stop id="SvgjsStop7953" stop-color="#8f5e25" offset="1"></stop></linearGradient><linearGradient id="SvgjsLinearGradient7954"><stop id="SvgjsStop7955" stop-color="#8f5e25" offset="0"></stop><stop id="SvgjsStop7956" stop-color="#fbf4a1" offset="0.5"></stop><stop id="SvgjsStop7957" stop-color="#8f5e25" offset="1"></stop></linearGradient></defs><g id="SvgjsG7940" featureKey="symbolFeature-0" transform="matrix(4.126637554585153,0,0,4.126637554585153,278.7467248908297,-8.253275109170305)" fill="url(#SvgjsLinearGradient7946)"><g xmlns="http://www.w3.org/2000/svg"><polygon fill="url(#SvgjsLinearGradient7946)" points="4.3,12 2,16 4.3,20 8.9,20 11.2,16 8.9,12  "></polygon><polygon fill="url(#SvgjsLinearGradient7946)" points="8.9,10 11.2,6 8.9,2 4.3,2 2,6 4.3,10  "></polygon><polygon fill="url(#SvgjsLinearGradient7946)" points="17.9,7 13.3,7 11,11 13.3,15 17.9,15 20.2,11  "></polygon><path fill="url(#SvgjsLinearGradient7946)" d="M20,16c0,0-2,2-2,4c0,1.1,0.9,2,2,2c1.1,0,2-0.9,2-2C22,18,20,16,20,16z"></path></g></g><g id="SvgjsG7941" featureKey="nameFeature-0" transform="matrix(1.6028023383817922,0,0,1.6028023383817922,-0.9397220804111376,-12.747841177834818)" fill="url(#SvgjsLinearGradient7950)"><path d="M22.539 40 l-2.0508 -5.8203 l-11.855 0 l-2.0508 5.8203 l-5.9961 0 l10.391 -28.223 l7.168 0 l10.391 28.223 l-5.9961 0 z M10.352 29.277 l8.418 0 l-4.1992 -11.973 z M43.5156875 19.922 l5.625 0 l0 20.078 l-5.332 0 l-0.13672 -2.4219 c-1.4063 1.7773 -3.6328 2.8125 -6.3867 2.8125 c-4.8242 0 -7.4805 -2.5195 -7.4805 -6.9531 l0 -13.516 l5.6445 0 l0 12.305 c0 2.6563 1.6602 3.6328 3.6133 3.6328 c2.3242 0 4.4336 -1.1719 4.4531 -4.8633 l0 -11.074 z M60.625375 40 c-3.9063 0 -6.1328 -2.2656 -6.1328 -6.2695 l0 -9.4922 l-3.9453 0 l0 -4.3164 l1.2695 0 c2.1289 0 3.3008 -0.82031 3.3008 -3.8281 l0 -2.6563 l5.0781 0 l0 6.4844 l4.1406 0 l0 4.3164 l-4.1406 0 l0 8.8867 c0 1.7969 0.87891 2.5977 2.3242 2.5977 l1.8164 0 l0 4.2773 l-3.7109 0 z M76.23084375 40.39063 c-6.3867 0 -10.996 -3.8867 -10.996 -10.449 c0 -6.5234 4.5703 -10.41 10.996 -10.41 c6.4648 0 11.016 3.8867 11.016 10.41 c0 6.5625 -4.5703 10.449 -11.016 10.449 z M76.17184375 35.918 c3.2617 0 5.4883 -2.3828 5.4883 -5.9766 s-2.2266 -5.9766 -5.4883 -5.9766 c-3.1445 0 -5.3516 2.3828 -5.3516 5.9766 s2.207 5.9766 5.3516 5.9766 z M108.14421875 11.777000000000001 l5.8594 0 l0 28.223 l-5.8594 0 l0 -11.602 l-11.934 0 l0 11.602 l-5.8594 0 l0 -28.223 l5.8594 0 l0 11.523 l11.934 0 l0 -11.523 z M121.62114375 16.914 c-1.7773 0 -3.2617 -1.4453 -3.2617 -3.2422 c0 -1.7773 1.4844 -3.2227 3.2617 -3.2227 c1.7383 0 3.2227 1.4453 3.2227 3.2227 c0 1.7969 -1.4844 3.2422 -3.2227 3.2422 z M118.75004375 40 l0 -20.078 l5.6641 0 l0 20.078 l-5.6641 0 z M141.4848125 19.922 l5.957 0 l-8.5547 20.078 l-4.8828 0 l-8.457 -20.078 l5.918 0 l5 13.73 z M167.4610625 29.668 l-0.058594 1.3477 l-14.883 0 c0.23438 3.3398 2.4609 4.9414 5.1367 4.9414 c2.0117 0 3.5742 -0.9375 4.3359 -2.7148 l5.1563 0.76172 c-1.3281 4.0625 -4.9414 6.3867 -9.4531 6.3867 c-6.4844 0 -10.723 -3.8281 -10.723 -10.43 s4.3555 -10.469 10.547 -10.469 c5.6836 0 9.9219 3.1445 9.9414 10.176 z M157.5590625 23.477 c-2.5586 0 -4.3359 1.1914 -4.8828 3.8672 l9.2188 0 c-0.29297 -2.5586 -2.0313 -3.8672 -4.3359 -3.8672 z"></path></g><g id="SvgjsG7942" featureKey="sloganFeature-0" transform="matrix(0.5064390579819025,0,0,0.5064390579819025,19.07509027538139,69.11671574234468)" fill="url(#SvgjsLinearGradient7954)"><path d="M9.4043 12.5488 c1.5918 0.43945 2.6563 1.4844 2.6563 3.4961 c0 2.3828 -1.4453 3.9551 -4.4238 3.9551 l-5.8105 0 l0 -14.111 l4.5703 0 c3.0469 0 4.6484 1.4648 4.6484 3.8672 c0 1.2402 -0.53711 2.2559 -1.6406 2.793 z M6.4258 8.32 l-1.7773 0 l0 3.3203 l1.9043 0 c1.25 0 1.7969 -0.74219 1.7969 -1.6992 c0 -0.9375 -0.61523 -1.6211 -1.9238 -1.6211 z M7.0898 17.4902 c1.582 0 2.1289 -0.84961 2.1289 -1.7676 c0 -0.9375 -0.53711 -1.8262 -2.1875 -1.8262 l-2.3828 0 l0 3.5938 l2.4414 0 z M28.974628125 20.19531 c-3.0957 0 -5.5176 -1.582 -5.5176 -5.1367 l0 -9.1699 l2.9297 0 l0 8.7695 c0 2.1484 1.1426 2.9492 2.5879 2.9492 c1.4551 0 2.6074 -0.81055 2.6074 -2.9492 l0 -8.7695 l2.9297 0 l0 9.1699 c0 3.5547 -2.4316 5.1367 -5.5371 5.1367 z M49.521453125 17.4121 l6.7773 0 l0 2.5879 l-10.283 0 l0 -2.3145 l6.6895 -9.2188 l-6.6797 0 l0 -2.5781 l10.146 0 l0 2.3145 z M70.634734375 17.4121 l6.7773 0 l0 2.5879 l-10.283 0 l0 -2.3145 l6.6895 -9.2188 l-6.6797 0 l0 -2.5781 l10.146 0 l0 2.3145 z M89.179715625 20 l0 -14.111 l2.9297 0 l0 14.111 l-2.9297 0 z M114.4728125 5.888999999999999 l2.9199 0 l0 14.111 l-3.3887 0 l-6.25 -10.088 l0 10.088 l-2.9199 0 l0 -14.111 l3.3496 0 l6.2891 10.029 l0 -10.029 z M136.23048125 20.19531 c-4.0723 0 -7.0703 -2.8125 -7.0703 -7.2168 c0 -4.4629 3.0664 -7.2852 7.2168 -7.2852 c2.7246 0 4.9805 1.2012 6.2109 3.3203 l-2.5684 1.3672 c-0.74219 -1.4453 -2.0703 -2.1387 -3.6426 -2.1387 c-2.4414 0 -4.2773 1.6797 -4.2773 4.668 c0 2.8809 1.7188 4.7363 4.3848 4.7363 c1.8066 0 3.4668 -0.89844 3.8672 -2.959 l-3.8574 0 l0 -2.3535 l6.6309 0 l0 7.666 l-2.3047 0 l0 -1.9531 c-0.9082 1.3379 -2.4316 2.1484 -4.5898 2.1484 z M171.8164125 20 l-3.6914 -14.111 l3.0469 0 l2.7539 10.684 l3.1543 -10.684 l2.4707 0 l3.1348 10.684 l2.7832 -10.684 l3.0371 0 l-3.6914 14.111 l-3.7695 0 l-2.7344 -8.7207 l-2.7246 8.7207 l-3.7695 0 z M199.843778125 20 l0 -14.111 l2.9297 0 l0 14.111 l-2.9297 0 z M223.681875 5.888999999999999 l0 2.5781 l-3.3496 0 l0 11.533 l-2.9004 0 l0 -11.533 l-3.3691 0 l0 -2.5781 l9.6191 0 z M243.877296875 5.888999999999999 l2.9297 0 l0 14.111 l-2.9297 0 l0 -5.8008 l-5.9668 0 l0 5.8008 l-2.9297 0 l0 -14.111 l2.9297 0 l0 5.7617 l5.9668 0 l0 -5.7617 z M280.0683875 20.19531 c-4.1504 0 -7.2168 -2.8223 -7.2168 -7.2559 s3.0664 -7.2461 7.2168 -7.2461 c3.1445 0 5.6641 1.6113 6.6699 4.2871 l-2.7344 0.99609 c-0.625 -1.6406 -2.1191 -2.5879 -3.9355 -2.5879 c-2.4316 0 -4.2969 1.6992 -4.2969 4.5508 s1.8652 4.5605 4.2969 4.5605 c1.8164 0 3.3105 -0.95703 3.9355 -2.5977 l2.7344 0.99609 c-1.0059 2.6758 -3.5254 4.2969 -6.6699 4.2969 z M307.666484375 20 l-1.0254 -2.9102 l-5.9277 0 l-1.0254 2.9102 l-2.998 0 l5.1953 -14.111 l3.584 0 l5.1953 14.111 l-2.998 0 z M301.572284375 14.6387 l4.209 0 l-2.0996 -5.9863 z M329.3163625 20 l-3.6719 -6.2109 l-0.84961 0 l0 6.2109 l-2.9297 0 l0 -14.111 l5.1172 0 c3.1934 0 4.541 1.8848 4.541 4.2188 c0 1.8945 -1.0742 3.125 -2.9883 3.5352 l4.248 6.3574 l-3.4668 0 z M324.7949625 8.32 l0 3.3691 l1.7285 0 c1.5625 0 2.1973 -0.66406 2.1973 -1.6797 c0 -1.0059 -0.63477 -1.6895 -2.1973 -1.6895 l-1.7285 0 z M358.29104375 20 l0 -14.111 l5.1074 0 c4.502 0 6.7285 2.832 6.7285 7.0508 c0 4.2285 -2.2266 7.0605 -6.7285 7.0605 l-5.1074 0 z M361.22074375 17.4121 l2.0313 0 c2.5977 0 3.7891 -1.6211 3.7891 -4.4727 s-1.1914 -4.4727 -3.7891 -4.4727 l-2.0313 0 l0 8.9453 z M390.136953125 8.467 l-5.2344 0 l0 3.2031 l4.6387 0 l0 2.5488 l-4.6387 0 l0 3.1934 l5.2344 0 l0 2.5879 l-8.1836 0 l0 -14.111 l8.1836 0 l0 2.5781 z M411.68015625 20 l-1.0254 -2.9102 l-5.9277 0 l-1.0254 2.9102 l-2.998 0 l5.1953 -14.111 l3.584 0 l5.1953 14.111 l-2.998 0 z M405.58595625 14.6387 l4.209 0 l-2.0996 -5.9863 z M428.808634375 17.4121 l4.4238 0 l0 2.5879 l-7.3535 0 l0 -14.111 l2.9297 0 l0 11.523 z M449.238309375 20.19531 c-3.0273 0 -5.3906 -1.4551 -5.8203 -4.1016 l3.0273 -0.69336 c0.19531 1.582 1.3574 2.4023 2.9102 2.4023 c1.1914 0 2.1387 -0.52734 2.1289 -1.7188 c-0.0097656 -1.3281 -1.5723 -1.748 -3.291 -2.2754 c-2.0703 -0.64453 -4.2871 -1.4063 -4.2871 -4.0039 c0 -2.627 2.1484 -4.1113 4.9805 -4.1113 c2.4805 0 4.9805 1.0059 5.5469 3.7109 l-2.832 0.70313 c-0.26367 -1.4063 -1.2109 -2.0215 -2.5391 -2.0215 c-1.1816 0 -2.1875 0.48828 -2.1875 1.6504 c0 1.084 1.3867 1.4453 2.9883 1.9238 c2.1289 0.64453 4.6484 1.4648 4.6484 4.2773 c0 2.998 -2.5098 4.2578 -5.2734 4.2578 z"></path></g>
			</g>
		</svg>
	